<?xml version="1.0" encoding="UTF-8" standalone="no"?>
<svg
   width="48"
   height="48"
   version="1.1"
   id="svg29"
   xmlns:xlink="http://www.w3.org/1999/xlink"
   xmlns="http://www.w3.org/2000/svg"
   xmlns:svg="http://www.w3.org/2000/svg">
  <defs
     id="defs17">
    <linearGradient
       id="a"
       y1="1016.36"
       x1="13"
       y2="1040.36"
       gradientUnits="userSpaceOnUse"
       x2="36">
      <stop
         stop-color="#292c2f"
         id="stop2" />
      <stop
         offset="1"
         stop-opacity="0"
         id="stop4" />
    </linearGradient>
    <linearGradient
       id="b"
       y1="44"
       y2="4"
       x2="0"
       gradientUnits="userSpaceOnUse">
      <stop
         stop-color="#c8c8c8"
         id="stop7" />
      <stop
         offset="1"
         stop-color="#fefefe"
         id="stop9" />
    </linearGradient>
    <linearGradient
       id="c"
       y1="39"
       y2="9"
       x2="0"
       gradientUnits="userSpaceOnUse"
       gradientTransform="matrix(1.02857 0 0 1.2-5.314-4.8)">
      <stop
         stop-color="#197cf1"
         id="stop12" />
      <stop
         offset="1"
         stop-color="#20bcfa"
         id="stop14" />
    </linearGradient>
    <linearGradient
       id="b-3"
       y1="44"
       y2="4"
       x2="0"
       gradientUnits="userSpaceOnUse">
      <stop
         stop-color="#7cbaf8"
         id="stop7-6" />
      <stop
         offset="1"
         stop-color="#f4fcff"
         id="stop9-7" />
    </linearGradient>
    <linearGradient
       id="c-5"
       y1="39"
       y2="9"
       x2="0"
       gradientUnits="userSpaceOnUse"
       gradientTransform="matrix(1.02857,0,0,1.2,-5.314,-4.8)">
      <stop
         stop-color="#197cf1"
         id="stop12-3" />
      <stop
         offset="1"
         stop-color="#20bcfa"
         id="stop14-5" />
    </linearGradient>
    <linearGradient
       id="b-3-0"
       y1="44"
       y2="4"
       x2="0"
       gradientUnits="userSpaceOnUse">
      <stop
         stop-color="#7cbaf8"
         id="stop7-6-9"
         style="stop-color:#c8c8c8;stop-opacity:1" />
      <stop
         offset="1"
         stop-color="#f4fcff"
         id="stop9-7-3"
         style="stop-color:#fefefe;stop-opacity:1" />
    </linearGradient>
    <linearGradient
       id="c-5-6"
       y1="39"
       y2="9"
       x2="0"
       gradientUnits="userSpaceOnUse"
       gradientTransform="matrix(1.02857,0,0,1.2,-5.314,-4.8)">
      <stop
         stop-color="#197cf1"
         id="stop12-3-0" />
      <stop
         offset="1"
         stop-color="#20bcfa"
         id="stop14-5-6" />
    </linearGradient>
    <linearGradient
       id="a-2"
       y1="1016.36"
       x1="13"
       y2="1040.36"
       gradientUnits="userSpaceOnUse"
       x2="36"
       gradientTransform="translate(0,-1004.36)">
      <stop
         stop-color="#292c2f"
         id="stop2-6" />
      <stop
         offset="1"
         stop-opacity="0"
         id="stop4-1" />
    </linearGradient>
    <linearGradient
       id="linearGradient4232">
      <stop
         style="stop-color:#3889e9"
         id="stop4234-0" />
      <stop
         offset="1"
         style="stop-color:#5ea5fb"
         id="stop4236" />
    </linearGradient>
    <linearGradient
       xlink:href="#a"
       id="linearGradient6025"
       gradientUnits="userSpaceOnUse"
       gradientTransform="translate(0,-1004.36)"
       x1="13"
       y1="1016.36"
       x2="36"
       y2="1040.36" />
    <linearGradient
       xlink:href="#c-5-6"
       id="linearGradient9092"
       gradientUnits="userSpaceOnUse"
       gradientTransform="matrix(1.02857,0,0,1.2,-5.314,-4.8)"
       y1="39"
       x2="0"
       y2="9" />
    <linearGradient
       id="b-3-0-6"
       y1="44"
       y2="4"
       x2="0"
       gradientUnits="userSpaceOnUse">
      <stop
         stop-color="#7cbaf8"
         id="stop7-6-9-1"
         style="stop-color:#c8c8c8;stop-opacity:1" />
      <stop
         offset="1"
         stop-color="#f4fcff"
         id="stop9-7-3-0"
         style="stop-color:#fefefe;stop-opacity:1" />
    </linearGradient>
    <linearGradient
       xlink:href="#b-3-0-6"
       id="linearGradient14008"
       gradientUnits="userSpaceOnUse"
       y1="44"
       x2="0"
       y2="4" />
  </defs>
  <g
     id="g5358"
     style="display:inline;opacity:1">
    <path
       fill="url(#b)"
       d="M 44,24 A 20,20 0 1 1 4,24 20,20 0 1 1 44,24"
       id="path5352"
       style="color:#000000;mix-blend-mode:normal;fill:url(#linearGradient14008);fill-opacity:1;fill-rule:evenodd;stroke-width:2" />
    <path
       id="path5354"
       style="color:#000000;fill:url(#linearGradient9092);fill-rule:evenodd;stroke-width:2"
       d="M 24,6 C 14.059,6 6,14.06 6,24 6,33.941 14.06,42 24,42 33.941,42 42,33.94 42,24 42,14.059 33.94,6 24,6 Z m 1.230469,3.75 h 4.25 L 28.341797,14 h -4.25 z m -2.279297,8.5 h 8.5 l -1.136719,4.25 h -4.25 l -3.417969,12.75 h -8.5 L 15.287109,31 h 4.25 z" />
    <path
       id="path25-5"
       style="display:inline;fill:url(#linearGradient6025);fill-rule:evenodd;opacity:0.2"
       d="M 29.480469 9.75 L 28.341797 14 L 24.091797 14 L 28.341797 18.25 L 31.451172 18.25 L 30.314453 22.5 L 26.064453 22.5 L 22.646484 35.25 L 14.146484 35.25 L 22.849609 43.953125 A 20 20 0 0 0 43.982422 24.25 L 29.480469 9.75 z " />
    <path
       style="fill:#2c2e31;fill-opacity:0.235294"
       d="m 4.01168,23.49995 c -0.004,0.16654 -0.0117,0.33244 -0.0117,0.5 0,11.08 8.92,20 20,20 11.08,0 20,-8.92 20,-20 0,-0.16756 -0.008,-0.33346 -0.0117,-0.5 -0.26467,10.84613 -9.07616,19.5 -19.98828,19.5 -10.91212,0 -19.72361,-8.65387 -19.98828,-19.5 z"
       id="path25-3" />
    <path
       style="display:inline;fill:#2c2e31;fill-opacity:0.235294;stroke-width:0.900449"
       d="m 6.0015462,23.522754 c -0.0036,0.149961 -0.010535,0.299344 -0.010535,0.450224 0,9.976968 8.0319998,18.008968 18.0089688,18.008968 9.976969,0 18.008969,-8.032 18.008969,-18.008968 0,-0.15088 -0.0072,-0.300263 -0.01054,-0.450224 -0.238322,9.766381 -8.172616,17.558744 -17.998417,17.558744 -9.825802,0 -17.7600939,-7.792363 -17.9984155,-17.558744 z"
       id="path25-3-2" />
  </g>
</svg>
